:SAMPLES-PER-SECOND 30
:FULLY-SPECIFIED
:DEGREES
1118
root  33.4626 39.9633 10.6677 175.074 68.8849 174.092
RightUpLeg  -6.12218 -31.73 -13.1255
RightLeg  18.071 -14.778 -2.98402
RightFoot  -2.38926 -0.363199 4.42797
RightToes  0.000481921 0.542163 -0.142578
Spine  21.4546 3.76923 13.5126
Spine1  7.12742 10.8937 -17.2508
HEad  -6.03079 -23.7207 13.4275
LeftShoulder1  7.6151 -13.2377 -39.278
LeftArm  -2.50053 1.765 -31.4905
LeftForeArm  -167.182 -56.3953 -166.779
LeftHand  -0.25398 0.0180481 5.50724
RightShoulder  6.21684 12.3832 33.2025
RightArm  -13.6395 29.5631 32.3607
RightForeArm  -168.442 67.0014 159.432
RightHand  0.544915 1.59006 8.85237
LeftUpLeg  -11.4441 7.00236 4.2033
LeftLeg  7.80394 -1.50772 -2.95429
LeftFoot  4.2032 0.940387 -7.0696
LeftToes  1.06244e-005 4.65869e-005 -8.65518e-006
1119
root  33.5537 39.8395 10.5177 173.137 69.9103 173.263
RightUpLeg  -5.80773 -32.9994 -13.7672
RightLeg  19.5671 -12.0364 -3.71532
RightFoot  -3.16923 -0.374694 4.94552
RightToes  0.000481921 0.542163 -0.142578
Spine  20.8056 3.52013 12.1072
Spine1  7.56207 9.81596 -15.0033
HEad  -4.27037 -22.5581 11.6483
LeftShoulder1  7.70444 -13.0831 -40.1909
LeftArm  -2.13961 -0.445786 -31.5487
LeftForeArm  -166.425 -56.6318 -166.715
LeftHand  -0.25398 0.0180481 5.50724
RightShoulder  7.04647 12.217 38.7488
RightArm  -13.1513 25.3923 32.6077
RightForeArm  -169.668 64.1707 161.739
RightHand  0.335995 0.253876 6.91364
LeftUpLeg  -11.3392 8.72282 3.47769
LeftLeg  10.8747 -2.52922 -2.1547
LeftFoot  2.28367 0.789225 -6.72165
LeftToes  1.06244e-005 4.65869e-005 -8.65518e-006
1120
root  33.5223 39.5397 10.3529 171.532 71.0723 173.142
RightUpLeg  -6.27693 -32.8671 -14.1864
RightLeg  22.9218 -10.1786 -5.02848
RightFoot  -4.72832 -0.363955 5.7501
RightToes  0.000481921 0.542163 -0.142578
Spine  21.0277 2.68234 11.1979
Spine1  7.62033 8.27647 -12.8902
HEad  -3.10156 -20.734 8.78034
LeftShoulder1  7.75879 -12.9764 -40.7843
LeftArm  -2.6793 -2.1887 -31.1673
LeftForeArm  -167.239 -57.5047 -166.204
LeftHand  -0.25398 0.0180481 5.50724
RightShoulder  7.42767 12.1608 41.2031
RightArm  -13.496 22.5074 34.6307
RightForeArm  -176.895 63.2051 161.776
RightHand  0.111427 -0.152022 2.65244
LeftUpLeg  -12.2799 10.6881 2.87853
LeftLeg  16.2978 -3.78059 -1.13284
LeftFoot  -0.631406 0.628067 -6.65819
LeftToes  1.06244e-005 4.65869e-005 -8.65518e-006
1121
root  33.3898 39.0756 10.1663 169.471 73.0355 173.164
RightUpLeg  -7.02137 -28.8396 -14.7372
RightLeg  27.7553 -10.9607 -6.42634
RightFoot  -6.72408 -0.304976 6.40737
RightToes  0.000481921 0.542163 -0.142578
Spine  22.327 1.56484 11.0862
Spine1  7.66138 6.9481 -11.7027
HEad  -2.46582 -18.2634 6.12076
LeftShoulder1  7.73823 -13.1073 -40.3204
LeftArm  -4.00562 -3.63633 -31.1034
LeftForeArm  -168.781 -58.3 -165.659
LeftHand  -0.25398 0.0180481 5.50724
RightShoulder  7.51501 12.4898 40.7999
RightArm  -13.9579 21.1018 38.3383
RightForeArm  174.801 62.8224 161.263
RightHand  -0.129357 0.225005 -2.68103
LeftUpLeg  -13.0739 9.88345 3.32126
LeftLeg  22.7469 -1.60699 -0.364559
LeftFoot  -3.88289 0.450048 -6.53817
LeftToes  1.06244e-005 4.65869e-005 -8.65518e-006
1122
root  33.2391 38.5588 9.97193 165.241 75.9726 171.26
RightUpLeg  -7.96551 -24.9002 -15.3772
RightLeg  32.5547 -10.6085 -7.45115
RightFoot  -8.53411 -0.215323 6.37981
RightToes  0.000481921 0.542163 -0.142578
Spine  24.0377 0.833051 10.892
Spine1  8.11965 6.25249 -11.0281
HEad  -1.96297 -15.4146 5.15543
LeftShoulder1  7.68988 -13.4484 -39.1599
LeftArm  -5.53932 -5.61489 -31.5579
LeftForeArm  -169.354 -58.356 -165.58
LeftHand  -0.25398 0.0180481 5.50724
RightShoulder  7.40438 12.7043 39.5588
RightArm  -14.1654 21.2091 41.817
RightForeArm  169.289 62.1325 161.248
RightHand  -0.332814 0.573138 -6.61778
LeftUpLeg  -13.0125 9.75512 3.66578
LeftLeg  28.4474 0.763963 0.787978
LeftFoot  -6.71333 0.292954 -6.24712
LeftToes  1.06244e-005 4.65869e-005 -8.65518e-006
1123
root  33.14 38.1526 9.78158 158.699 79.086 166.512
RightUpLeg  -8.84127 -22.3532 -16.1488
RightLeg  35.8431 -9.22116 -7.34307
RightFoot  -9.68177 -0.150703 5.86503
RightToes  0.000481921 0.542163 -0.142578
Spine  25.0395 0.578905 10.0827
Spine1  9.06107 5.7846 -9.94063
HEad  -1.34339 -12.6539 5.1449
LeftShoulder1  7.67294 -13.6941 -38.4446
LeftArm  -6.84707 -8.49168 -32.0561
LeftForeArm  -169.658 -57.6727 -165.928
LeftHand  -0.25398 0.0180481 5.50724
RightShoulder  7.23928 12.5659 38.9574
RightArm  -13.7591 22.2165 44.001
RightForeArm  167.698 61.1999 161.779
RightHand  -0.423167 0.789859 -8.06958
LeftUpLeg  -12.4004 10.3823 3.65399
LeftLeg  32.2683 2.66781 2.16099
LeftFoot  -8.71438 0.187664 -5.9138
LeftToes  1.06244e-005 4.65869e-005 -8.65518e-006
1124
root  33.1124 37.9924 9.60917 152.755 81.6085 161.383
RightUpLeg  -9.28134 -21.7176 -16.5347
RightLeg  36.6778 -7.42489 -6.1734
RightFoot  -9.98085 -0.132417 5.4535
RightToes  0.000481921 0.542163 -0.142578
Spine  24.895 0.374193 9.06725
Spine1  9.99281 4.94724 -8.13207
HEad  -0.61556 -10.1596 4.39383
LeftShoulder1  7.68071 -13.6182 -38.6794
LeftArm  -7.50025 -11.528 -32.6381
LeftForeArm  -170.573 -56.855 -166.288
LeftHand  -0.25398 0.0180481 5.50724
RightShoulder  7.17091 12.3817 39.0458
RightArm  -12.4443 22.721 45.2891
RightForeArm  168.274 60.0751 162.605
RightHand  -0.516366 1.39839 -8.97203
LeftUpLeg  -11.7497 11.2409 3.7671
LeftLeg  33.8418 3.96855 3.21086
LeftFoot  -9.70475 0.139304 -5.69461
LeftToes  1.06244e-005 4.65869e-005 -8.65518e-006
1125
root  33.146 38.1283 9.48994 150.312 83.5568 158.828
RightUpLeg  -9.09758 -22.0752 -16.1083
RightLeg  34.9673 -5.961 -4.73019
RightFoot  -9.36156 -0.156842 5.37874
RightToes  0.000481921 0.542163 -0.142578
Spine  24.0801 0.031452 8.21221
Spine1  10.2691 3.73517 -6.0492
HEad  0.27347 -7.91057 2.47972
LeftShoulder1  7.67134 -13.3891 -39.2063
LeftArm  -7.07928 -13.5734 -33.9979
LeftForeArm  -170.68 -56.3547 -166.534
LeftHand  -0.25398 0.0180481 5.50724
RightShoulder  7.16823 12.2919 39.2748
RightArm  -10.2024 21.4125 46.3737
RightForeArm  169.299 58.5616 163.658
RightHand  -0.692595 2.31764 -10.645
LeftUpLeg  -11.0146 12.4424 4.32224
LeftLeg  33.0369 4.53896 3.52843
LeftFoot  -9.56348 0.144624 -5.62744
LeftToes  1.06244e-005 4.65869e-005 -8.65518e-006
1126
root  33.2231 38.4994 9.45077 149.049 85.2241 156.695
RightUpLeg  -8.64691 -22.2292 -15.0255
RightLeg  31.3557 -5.21208 -3.66173
RightFoot  -7.85482 -0.216945 5.37066
RightToes  0.000481921 0.542163 -0.142578
Spine  23.0844 -0.299386 7.3815
Spine1  9.70716 2.5318 -4.25761
HEad  1.35855 -5.7273 0.482973
LeftShoulder1  7.62235 -13.2689 -39.2383
LeftArm  -5.82475 -14.2029 -36.0912
LeftForeArm  -169.121 -55.98 -166.837
LeftHand  -0.25398 0.0180481 5.50724
RightShoulder  7.12014 12.1889 39.267
RightArm  -7.38593 18.3122 47.6176
RightForeArm  170.738 56.895 164.751
RightHand  -0.836906 2.94431 -11.9145
LeftUpLeg  -10.0255 14.176 4.97883
LeftLeg  30.0271 4.58123 3.20755
LeftFoot  -8.34799 0.198522 -5.67631
LeftToes  1.06244e-005 4.65869e-005 -8.65518e-006
1127
root  33.3203 38.9681 9.47419 142.069 86.745 148.255
RightUpLeg  -8.41265 -21.8843 -13.7197
RightLeg  26.8042 -4.98077 -2.96714
RightFoot  -5.72152 -0.28892 5.10067
RightToes  0.000481921 0.542163 -0.142578
Spine  21.9514 -0.595368 6.483
Spine1  8.72298 1.51275 -3.0096
HEad  2.3829 -3.37662 -0.526278
LeftShoulder1  7.53265 -13.2518 -38.7717
LeftArm  -4.54612 -13.9982 -37.836
LeftForeArm  -167.466 -55.3077 -167.283
LeftHand  -0.25398 0.0180481 5.50724
RightShoulder  7.03267 12.1435 38.8595
RightArm  -4.4827 14.8783 49.1021
RightForeArm  172.73 55.6984 165.556
RightHand  -0.849812 3.16916 -11.7841
LeftUpLeg  -8.94259 16.2025 5.26619
LeftLeg  25.5838 4.53724 2.70184
LeftFoot  -6.42972 0.286012 -5.76724
LeftToes  1.06244e-005 4.65869e-005 -8.65518e-006
1128
root  33.4049 39.3981 9.51716 117.592 87.9806 122.136
RightUpLeg  -8.3854 -21.3414 -12.4846
RightLeg  22.1688 -4.79167 -2.33302
RightFoot  -3.43106 -0.338898 4.564
RightToes  0.000481921 0.542163 -0.142578
Spine  20.7303 -0.975337 5.82493
Spine1  7.88055 0.653838 -2.30883
HEad  2.79664 -1.12946 -1.04387
LeftShoulder1  7.42761 -13.2349 -38.2145
LeftArm  -3.7356 -13.9036 -38.5052
LeftForeArm  -166.855 -54.3592 -167.765
LeftHand  -0.25398 0.0180481 5.50724
RightShoulder  6.94808 12.2527 38.0454
RightArm  -1.92008 12.7671 50.5178
RightForeArm  174.581 55.3301 165.891
RightHand  -0.780487 3.1741 -10.8442
LeftUpLeg  -7.96582 18.2107 5.23563
LeftLeg  20.8838 4.62472 2.29546
LeftFoot  -4.38751 0.379636 -5.81446
LeftToes  1.06244e-005 4.65869e-005 -8.65518e-006
1129
root  33.4445 39.7019 9.55221 68.6843 88.3044 71.8909
RightUpLeg  -8.37383 -20.2129 -11.586
RightLeg  18.2985 -4.90806 -1.5513
RightFoot  -1.51215 -0.358607 4.04362
RightToes  0.000481921 0.542163 -0.142578
Spine  19.8295 -1.37768 5.6071
Spine1  7.31817 0.0113928 -1.99099
HEad  2.57925 0.64693 -1.66597
LeftShoulder1  7.3543 -13.274 -37.6952
LeftArm  -3.39249 -14.4071 -38.4117
LeftForeArm  -166.351 -53.427 -168.212
LeftHand  -0.25398 0.0180481 5.50724
RightShoulder  6.78249 12.3322 36.8177
RightArm  -0.10711 12.5932 51.5323
RightForeArm  176.646 55.6272 165.904
RightHand  -0.6648 2.89727 -9.55879
LeftUpLeg  -7.15261 19.7143 5.31669
LeftLeg  17.1136 5.17067 1.86902
LeftFoot  -2.79165 0.452489 -5.82687
LeftToes  1.06244e-005 4.65869e-005 -8.65518e-006
1130
root  33.4149 39.8404 9.57804 30.1519 87.2289 32.4551
RightUpLeg  -8.75772 -18.3499 -11.1229
RightLeg  16.1433 -5.45401 -0.715268
RightFoot  -0.378502 -0.363685 3.75818
RightToes  0.000481921 0.542163 -0.142578
Spine  19.7703 -1.59081 5.56887
Spine1  6.72209 -0.32216 -1.72693
HEad  1.91964 1.86281 -2.36443
LeftShoulder1  7.31766 -13.4307 -37.0944
LeftArm  -3.42268 -15.3994 -38.1622
LeftForeArm  -165.131 -52.5805 -168.654
LeftHand  -0.25398 0.0180481 5.50724
RightShoulder  6.44863 12.1779 35.1473
RightArm  0.572526 13.8837 52.2459
RightForeArm  -179.059 55.9153 166.099
RightHand  -0.513726 2.54349 -7.76605
LeftUpLeg  -6.76411 19.8495 5.71602
LeftLeg  15.199 6.97325 1.30929
LeftFoot  -2.01464 0.49336 -5.89806
LeftToes  1.06244e-005 4.65869e-005 -8.65518e-006
